<?xml version="1.0" encoding="UTF-8"?>
<svg width="40px" height="42px" viewBox="0 0 40 42" version="1.1" xmlns="http://www.w3.org/2000/svg" xmlns:xlink="http://www.w3.org/1999/xlink">
    <title>gift</title>
    <g id="Page-1" stroke="none" stroke-width="1" fill="none" fill-rule="evenodd">
        <path d="M37.1866649,20.8111783 C37.1866649,20.9893562 37.0366203,21.1394008 36.8584425,21.1394008 L36.4720776,21.1394008 L33.6587426,21.1394008 L6.34125756,21.1394008 L3.52792236,21.1394008 L3.14155765,21.1394008 C2.96337977,21.1394008 2.81333521,20.9893562 2.81333521,20.8111783 L2.81333521,15.6083838 C2.81333521,15.4283303 2.96337977,15.2782858 3.14155765,15.2782858 L18.5923946,15.2782858 L30.1233179,15.2782858 L36.8584425,15.2782858 C37.0366203,15.2782858 37.1866649,15.4283303 37.1866649,15.6083838 L37.1866649,20.8111783 Z M33.6587426,38.5033056 C33.6587426,38.578328 33.5893469,38.6477235 33.5143247,38.6477235 L21.4057299,38.6477235 L21.4057299,23.9527361 L33.6587426,23.9527361 L33.6587426,38.5033056 Z M18.5923946,38.6477235 L6.48567544,38.6477235 C6.40877762,38.6477235 6.34125756,38.578328 6.34125756,38.5033056 L6.34125756,23.9527361 L18.5923946,23.9527361 L18.5923946,38.6477235 Z M13.8453604,2.81333522 C16.3998687,2.81333522 18.4761101,4.89145215 18.4761101,7.44408497 L18.4761101,12.0748347 L13.8453604,12.0748347 C11.2927275,12.0748347 9.21461061,9.99671779 9.21461061,7.44408497 C9.21461061,4.89145215 11.2927275,2.81333522 13.8453604,2.81333522 L13.8453604,2.81333522 Z M21.4057299,10.2292868 C21.4057299,7.98424533 23.2325222,6.15932856 25.4775637,6.15932856 C27.7244807,6.15932856 29.5493976,7.98424533 29.5493976,10.2292868 C29.5493976,11.0601585 29.2905706,11.8235101 28.8591926,12.4649505 L21.4057299,12.4649505 L21.4057299,10.2292868 Z M36.8584425,12.4649505 L31.9632392,12.4649505 C32.2108127,11.7634923 32.3627326,11.0170207 32.3627326,10.2292868 C32.3627326,6.43315985 29.2736906,3.34411778 25.4775637,3.34411778 C23.7070381,3.34411778 22.1071882,4.03619825 20.8862007,5.13902565 C19.9090355,2.16626811 17.1407137,0 13.8453604,0 C9.74164206,0 6.40127538,3.34036667 6.40127538,7.44408497 C6.40127538,9.39278851 7.1740048,11.1464341 8.40812116,12.4649505 L3.14155765,12.4649505 C1.40854316,12.4649505 0,13.8753693 0,15.6083838 L0,20.8111783 C0,22.5441928 1.40854316,23.9527361 3.14155765,23.9527361 L3.52792236,23.9527361 L3.52792236,38.5033056 C3.52792236,40.1350401 4.85394102,41.4610588 6.48567544,41.4610588 L33.5143247,41.4610588 C35.1460591,41.4610588 36.4720776,40.1350401 36.4720776,38.5033056 L36.4720776,23.9527361 L36.8584425,23.9527361 C38.591457,23.9527361 40,22.5441928 40,20.8111783 L40,15.6083838 C40,13.8753693 38.591457,12.4649505 36.8584425,12.4649505 L36.8584425,12.4649505 Z" id="gift" fill="#FFFFFF" fill-rule="nonzero"></path>
    </g>
</svg>